<svg xmlns="http://www.w3.org/2000/svg" class="c-heart" viewBox="0 0 128 128">
  <title>Heart</title>
  <g class="c-heart__container">
    <path d="M118.041 9.959c-6.152-6.153-14.652-9.959-24.041-9.959-9.389 0-17.889 3.805-24.041 9.959-2.361 2.36-4.372 5.068-5.959 8.037-1.587-2.969-3.597-5.677-5.959-8.037-6.152-6.153-14.652-9.959-24.041-9.959-9.389 0-17.889 3.805-24.041 9.959-6.154 6.152-9.959 14.652-9.959 24.041 0 9.389 3.805 17.889 9.959 24.041l54.041 53.959 54.041-53.959c6.154-6.152 9.959-14.652 9.959-24.041 0-9.389-3.805-17.889-9.959-24.041z" class="c-heart__property-fill"></path>
  </g>
</svg>
