<svg class="c-cn-tower" xmlns="http://www.w3.org/2000/svg" viewBox="0 0 60 640"><title>CN Tower</title><path d="M28.71 0v66.37h-2.24q.79 26.13 1 52.37h-2.42v2.5c-2.25 1-3.7 2.69-3.7 4.55 0 2.46 2.57 4.53 6.12 5.3q.09 35.57-.75 71.33h-4v7.39h3.81c-.07 2.71-.15 5.42-.22 8.14H14.38v10.64c-3.62 1.41-5.86 3.41-5.86 5.53a3 3 0 0 0 .07.52H5.08v3.17h1.27v2.65h.9v1.42h-.9v3.17h.9v1.38h-.9V249h1.83c.12 1.33 1.08 2.6 2.76 3.7v5.19c-2 1.09-3.21 2.34-3.21 3.7 0 3.37 7.17 6.17 16.83 7C19.42 391.77 8.51 516.11-.1 640h60.2c-7.93-123.85-17.65-247.69-22.69-371.54 8.93-1 15.38-3.67 15.38-6.87 0-1.24-1-2.38-2.69-3.4v-5.37c1.81-1.13 2.9-2.42 3-3.81h.67v-2.58h-1.36v-1.38h1.39v-3.17h-1.39v-1.42h1.39v-2.65h1.27v-3.17h-2.88a3 3 0 0 0 .07-.52c0-1.84-1.66-3.56-4.44-4.93V218H35.65c-.08-2.71-.15-5.42-.22-8.14h3.1v-7.39h-3.29q-.92-35.72-1.16-71.44c3.29-.85 5.6-2.84 5.6-5.19 0-1.89-1.51-3.56-3.81-4.59v-2.46H34q0-26.18.34-52.37h-2V0z" class="c-cn-tower__property-fill"/></svg>