<svg xmlns="http://www.w3.org/2000/svg" class="c-heart" viewBox="0 0 128 128"><title>Heart</title><g class="c-heart__container"><path d="M118.041 9.959C111.889 3.806 103.389 0 94 0c-9.389 0-17.889 3.805-24.041 9.959A34.079 34.079 0 0 0 64 17.996a34.051 34.051 0 0 0-5.959-8.037C51.889 3.806 43.389 0 34 0 24.611 0 16.111 3.805 9.959 9.959 3.805 16.111 0 24.611 0 34c0 9.389 3.805 17.889 9.959 24.041L64 112l54.041-53.959C124.195 51.889 128 43.389 128 34c0-9.389-3.805-17.889-9.959-24.041z" class="c-heart__property-fill"/></g></svg>